<svg xmlns="http://www.w3.org/2000/svg" version="1.1" xmlns:xlink="http://www.w3.org/1999/xlink" xmlns:svgjs="http://svgjs.dev/svgjs" width="1000" height="1000" viewBox="0 0 1000 1000"><rect width="1000" height="1000" fill="#ffffff"></rect><g transform="matrix(0.7,0,0,0.7,150.00028437500004,106.25)"><svg viewBox="0 0 320 360" data-background-color="#ffffff" preserveAspectRatio="xMidYMid meet" height="1125" width="1000" xmlns="http://www.w3.org/2000/svg" xmlns:xlink="http://www.w3.org/1999/xlink"><g id="tight-bounds" transform="matrix(1,0,0,1,-0.00013000000001284207,0)"><svg viewBox="0 0 320 360" height="360" width="320"><g><svg></svg></g><g><svg viewBox="0 0 320 360" height="360" width="320"><g><path transform="translate(-40.79862,-27.54029) scale(4.05392,4.05392)" d="M89 41.809l-4.923-4.923v-6.962l-13.274-13.274h-6.962l-4.923-4.923h-18.772l-4.923 4.923h-6.962l-13.274 13.274v6.962l-4.923 4.923v18.773l4.923 4.923v6.962l13.275 13.273h6.962l4.923 4.923h18.773l4.923-4.923h6.962l13.274-13.274v-6.962l4.921-4.923zM70.345 17.755l12.627 12.627v5.399l-18.026-18.026zM82.972 37.344v27.703l-19.588 19.588h-27.703l-19.589-19.589v-27.702l19.589-19.589h27.703zM40.604 12.832h17.857l3.818 3.818h-25.493zM16.092 30.382l12.627-12.627h5.399l-18.026 18.026zM11.17 60.124v-17.858l3.818-3.818v25.492zM28.719 84.635l-12.627-12.627v-5.399l18.026 18.026zM58.461 89.558h-17.857l-3.818-3.818h25.492zM82.972 72.008l-12.627 12.627h-5.399l18.026-18.026zM87.895 60.124l-3.818 3.818v-25.493l3.818 3.818z" fill="#000000" fill-rule="nonzero" stroke="none" stroke-width="1" stroke-linecap="butt" stroke-linejoin="miter" stroke-miterlimit="10" stroke-dasharray="" stroke-dashoffset="0" font-family="none" font-weight="none" font-size="none" text-anchor="none" style="mix-blend-mode: normal" data-fill-palette-color="tertiary"></path></g><g transform="matrix(1,0,0,1,84.8769467674748,90)"><svg viewBox="0 0 150.2461064650504 180" height="180" width="150.2461064650504"><g><svg viewBox="0 0 208 249.19114964692366" height="180" width="150.2461064650504"><g transform="matrix(1,0,0,1,0,162.46339968)"><svg viewBox="0 0 208 86.72774996692365" height="86.72774996692365" width="208"><g id="textblocktransform"><svg viewBox="0 0 208 86.72774996692365" height="86.72774996692365" width="208" id="textblock"><g><svg viewBox="0 0 208 57.47200000000001" height="57.47200000000001" width="208"><g transform="matrix(1,0,0,1,0,0)"><svg width="208" viewBox="1.35 -44.4 162.49 44.9" height="57.47200000000001" data-palette-color="#d9bca9"><path d="M1.85 0Q1.35 0 1.35-0.6L1.35-0.6Q1.35-1.85 2.65-3.3L2.65-3.3Q3.7-4.5 4.15-5.53 4.6-6.55 5.15-9.35L5.15-9.35 8.6-30.4 8.35-30.4Q6.3-30.4 5.13-29.95 3.95-29.5 3.15-28.95 2.35-28.4 2.15-28.4L2.15-28.4Q1.8-28.4 1.8-28.9L1.8-28.9Q1.8-29.15 1.9-29.65L1.9-29.65Q2.45-31.9 5-33.3 7.55-34.7 11.45-34.7L11.45-34.7Q13.2-34.7 15.7-34.45L15.7-34.45Q19.7-34.2 20.5-34.2L20.5-34.2Q22.45-34.2 23.6-34.43 24.75-34.65 25.58-34.93 26.4-35.2 26.7-35.2L26.7-35.2Q26.95-35.2 27.08-35.1 27.2-35 27.2-34.7L27.2-34.7Q27.2-33.9 26.43-32.77 25.65-31.65 24.15-30.8 22.65-29.95 20.5-29.95L20.5-29.95Q20.05-29.95 18.45-30.05L18.45-30.05Q16.05-30.25 13.95-30.25L13.95-30.25 12.3-19.95 21.95-19.95Q22.15-19.95 22.3-19.8 22.45-19.65 22.45-19.45L22.45-19.45Q22.45-19.05 21.83-18.07 21.2-17.1 20.3-16.3 19.4-15.5 18.5-15.5L18.5-15.5Q18.25-15.5 16.95-15.7L16.95-15.7Q14.95-16.1 13.35-16.1L13.35-16.1 11.6-16.1 10.05-6.8Q9.9-6.2 9.73-5.7 9.55-5.2 9.5-4.95L9.5-4.95 9.5-4.9Q12.2-4.3 14.4-4.3L14.4-4.3Q18.65-4.3 21.15-5.75L21.15-5.75Q21.9-6.25 22.3-6.25L22.3-6.25Q22.75-6.25 22.75-5.65L22.75-5.65Q22.75-4.35 21.55-3.03 20.35-1.7 18.3-0.85 16.25 0 13.75 0L13.75 0Q12.55 0 11.03-0.2 9.5-0.4 9.15-0.45L9.15-0.45Q6.45-0.85 5.5-0.85L5.5-0.85Q4.15-0.85 3.15-0.43 2.15 0 1.85 0L1.85 0ZM27.5 0Q27.2 0 27.2-0.6L27.2-0.6Q27.2-1.3 27.57-1.9 27.95-2.5 28.75-3.2L28.75-3.2Q29.55-4 29.9-4.45 30.25-4.9 30.52-5.75 30.8-6.6 31.2-8.35L31.2-8.35 35.75-30.25 35.45-30.25Q35.2-30.25 34.4-30.35L34.4-30.35Q33.4-30.55 32.3-30.55L32.3-30.55Q30.85-30.55 29.87-30.15 28.9-29.75 28.1-28.7L28.1-28.7Q27.85-28.35 27.6-28.13 27.35-27.9 27.15-27.9L27.15-27.9Q26.7-27.9 26.7-28.4L26.7-28.4Q26.7-28.9 26.8-29.2L26.8-29.2Q27.3-31.75 29.25-33.23 31.2-34.7 34.15-34.7L34.15-34.7Q34.75-34.7 36.05-34.6L36.05-34.6Q37.2-34.45 38.45-34.45L38.45-34.45Q38.9-34.45 40.7-34.6L40.7-34.6Q41.6-34.7 41.95-34.7L41.95-34.7Q41.85-33.4 41.85-32.45L41.85-32.45Q41.85-30.6 42.3-28.18 42.75-25.75 43.75-21.4L43.75-21.4 45.3-14.75Q45.65-13.75 45.75-13L45.75-13Q50.9-22.3 52.57-25.53 54.25-28.75 55.4-31.25L55.4-31.25Q56-32.45 56.35-33.25L56.35-33.25Q58.35-37.35 59.97-39.45 61.6-41.55 63.85-42.65L63.85-42.65Q65.35-43.4 67.05-43.65 68.75-43.9 71-43.9L71-43.9Q72.15-43.9 72.7-44.1L72.7-44.1Q73.05-44.2 73.3-44.3 73.55-44.4 73.7-44.4L73.7-44.4Q74.1-44.4 74.1-43.85L74.1-43.85Q74.1-42.8 72.85-41.8 71.6-40.8 70.2-40.8L70.2-40.8Q68.55-40.75 67.5-40.6 66.45-40.45 65.45-40L65.45-40Q63.55-39.1 62.55-36.75 61.55-34.4 60.9-29.75L60.9-29.75Q60.55-27.6 60.27-24.95 60-22.3 59.75-19.45L59.75-19.45Q59.1-12.15 58.5-7.3L58.5-7.3Q58.45-6.35 58.12-5.58 57.8-4.8 57.35-4.4L57.35-4.4 57.35-4.35Q58.35-3.85 59.35-3.85L59.35-3.85Q60.05-3.85 60.77-4.13 61.5-4.4 61.7-4.4L61.7-4.4Q61.9-4.4 61.97-4.3 62.05-4.2 62.05-3.9L62.05-3.9Q62.05-3.25 61.45-2.6L61.45-2.6Q59.45 0 57.55 0L57.55 0Q56.85 0 55.6-0.35L55.6-0.35Q55.45-0.4 54.65-0.6 53.85-0.8 53.05-0.8L53.05-0.8Q52-0.8 51.07-0.4 50.15 0 49.95 0L49.95 0Q49.6 0 49.6-0.6L49.6-0.6Q49.6-1.95 51.2-3.2L51.2-3.2 52.1-3.9Q52.7-4.35 52.92-4.63 53.15-4.9 53.2-5.5L53.2-5.5 53.3-6.55Q54.1-15.25 54.4-17.53 54.7-19.8 55.05-22.95L55.05-22.95 55-22.95Q52.9-19.6 50.65-15.2 48.4-10.8 47-7.2L47-7.2Q45.9-5.35 44.42-3.6 42.95-1.85 42.4-1.85L42.4-1.85Q42.25-1.85 42.17-2.02 42.1-2.2 42.1-2.5L42.1-2.5Q41.7-6.1 41.47-7.78 41.25-9.45 40.5-12.85L40.5-12.85Q40.15-14.35 39.47-17.25 38.8-20.15 38.5-21.75L38.5-21.75 38.45-21.8 35.4-6.65Q35.35-6.5 35.07-5.58 34.8-4.65 34.4-4.3L34.4-4.3 34.4-4.2Q35.35-3.85 36.2-3.85L36.2-3.85Q36.95-3.85 37.52-4.13 38.1-4.4 38.3-4.4L38.3-4.4Q38.7-4.4 38.7-3.9L38.7-3.9Q38.7-3.45 38.1-2.6L38.1-2.6Q37-1.1 36.2-0.55 35.4 0 34.4 0L34.4 0Q33.7 0 32.7-0.4L32.7-0.4Q31.5-0.8 30.7-0.8L30.7-0.8Q29.55-0.8 28.6-0.4 27.65 0 27.5 0L27.5 0ZM67.95 0.5Q66.4 0.5 65.52-1.05 64.65-2.6 64.65-5.2L64.65-5.2Q64.65-9.35 66.67-13.7 68.7-18.05 72.2-20.93 75.7-23.8 79.75-23.8L79.75-23.8Q81.05-23.8 82.32-23.5 83.6-23.2 84.4-22.75L84.4-22.75Q83.95-21.65 83.8-20.95 83.65-20.25 83.6-20.05L83.6-20.05Q83.25-18.25 82.57-14.58 81.9-10.9 81.3-7.55L81.3-7.55Q81-6.05 81-5.25L81-5.25Q81-4.7 81.17-4.45 81.35-4.2 81.7-4.2L81.7-4.2Q82.55-4.2 83.25-5.23 83.95-6.25 84.75-8.1L84.75-8.1Q84.85-8.4 85-8.6 85.15-8.8 85.4-8.8L85.4-8.8Q85.85-8.8 85.85-8.1L85.85-8.1Q85.85-7.75 85.8-7.55L85.8-7.55Q85.55-5.65 84.5-3.78 83.45-1.9 81.92-0.7 80.4 0.5 78.8 0.5L78.8 0.5Q77.5 0.5 76.77-0.45 76.05-1.4 76.05-3L76.05-3Q76.05-3.4 76.15-4.2L76.15-4.2 76.4-5.9 76.3-5.9Q74.45-3.1 72.07-1.3 69.7 0.5 67.95 0.5L67.95 0.5ZM70.8-4.45Q71.9-4.45 73.62-6.4 75.35-8.35 76.85-11.33 78.35-14.3 78.85-17.25L78.85-17.25 79.2-19.2Q77.95-19.95 76.9-19.95L76.9-19.95Q75.3-19.95 73.67-17.98 72.05-16 71.02-12.88 70-9.75 70-6.5L70-6.5Q70-5.3 70.17-4.88 70.35-4.45 70.8-4.45L70.8-4.45ZM90.24 0.5Q89.39 0.5 89.39-0.1L89.39-0.1Q89.39-0.35 89.77-1.23 90.14-2.1 90.49-3.95L90.49-3.95 91.34-8.75Q92.69-16.45 92.74-17.75L92.74-17.75 92.74-18.2Q92.74-19.05 92.29-19.05L92.29-19.05Q91.34-19.05 89.69-16L89.69-16Q89.49-15.6 89.24-15.28 88.99-14.95 88.74-14.95L88.74-14.95Q88.24-14.95 88.24-15.8L88.24-15.8Q88.24-17.1 89.42-19.03 90.59-20.95 92.32-22.38 94.04-23.8 95.64-23.8L95.64-23.8Q97.79-23.8 97.79-20.95L97.79-20.95Q97.79-20.35 97.39-16.75L97.39-16.75 97.44-16.75Q99.54-20.45 101.42-22.13 103.29-23.8 105.19-23.8L105.19-23.8Q106.49-23.8 107.29-23.05 108.09-22.3 108.09-20.9L108.09-20.9Q108.09-19.55 107.47-18.25 106.84-16.95 105.94-16.13 105.04-15.3 104.39-15.3L104.39-15.3Q103.99-15.3 104.14-15.8L104.14-15.8Q104.29-16.5 104.29-17.1L104.29-17.1Q104.29-18.4 103.14-18.4L103.14-18.4Q101.24-18.4 99.37-15.8 97.49-13.2 96.44-8.3L96.44-8.3Q95.69-5.2 95.44-3.45L95.44-3.45Q95.19-2.05 93.47-0.78 91.74 0.5 90.24 0.5L90.24 0.5ZM108.39 0.5Q107.59 0.5 107.59 0L107.59 0Q107.59-0.25 107.97-1.25 108.34-2.25 108.59-3.6L108.59-3.6 111.69-22.9Q112.69-29.15 114.27-33.15 115.84-37.15 118.04-39.6L118.04-39.6Q119.89-41.6 121.54-42.28 123.19-42.95 125.74-43.35L125.74-43.35Q127.24-43.6 127.79-43.73 128.34-43.85 128.49-43.85L128.49-43.85Q128.89-43.85 128.89-43.3L128.89-43.3Q128.89-42.85 128.52-42.23 128.14-41.6 127.59-41.05L127.59-41.05Q127.14-40.6 126.67-40.48 126.19-40.35 125.19-40.3L125.19-40.3Q123.64-40.15 122.49-39.45 121.34-38.75 120.29-37.2L120.29-37.2Q118.99-35.1 118.19-31.78 117.39-28.45 116.24-21.25L116.24-21.25 114.89-12.85 114.94-12.85 116.09-14.7Q118.39-18.45 120.04-20.43 121.69-22.4 122.92-23.1 124.14-23.8 125.49-23.8L125.49-23.8Q127.04-23.8 127.94-23.08 128.84-22.35 128.84-21.1L128.84-21.1Q128.84-20.15 128.42-19.28 127.99-18.4 127.44-18.4L127.44-18.4Q127.24-18.4 126.79-18.7L126.79-18.7Q126.34-19.1 125.87-19.33 125.39-19.55 124.69-19.55L124.69-19.55Q123.39-19.55 122.39-18.8 121.39-18.05 120.09-16.25L120.09-16.25 117.69-12.85Q121.54-4.35 123.39-4.35L123.39-4.35Q124.39-4.35 126.14-6.8L126.14-6.8Q126.44-7.3 126.67-7.55 126.89-7.8 127.19-7.8L127.19-7.8Q127.64-7.8 127.64-7.05L127.64-7.05Q127.64-6.65 127.59-6.45L127.59-6.45Q127.44-5.05 126.49-3.4 125.54-1.75 124.27-0.63 122.99 0.5 121.84 0.5L121.84 0.5Q120.39 0.5 119.04-1.35 117.69-3.2 116.09-6.55L116.09-6.55 115.04-8.75Q114.24-7.5 114.04-7.05L114.04-7.05 113.39-3.6Q113.14-2.15 111.54-0.83 109.94 0.5 108.39 0.5L108.39 0.5ZM135.04 0.5Q132.44 0.5 130.96-1.28 129.49-3.05 129.49-6.25L129.49-6.25Q129.49-10 131.41-14.13 133.34-18.25 136.31-21.03 139.29-23.8 142.29-23.8L142.29-23.8Q143.94-23.8 144.91-22.85 145.89-21.9 145.89-20.1L145.89-20.1Q145.89-17.85 144.44-15.48 142.99-13.1 140.46-11.08 137.94-9.05 134.79-7.8L134.79-7.8Q134.94-4.35 137.84-4.35L137.84-4.35Q139.44-4.35 140.86-5.35 142.29-6.35 143.39-8.05L143.39-8.05Q143.64-8.5 143.84-8.72 144.04-8.95 144.24-8.95L144.24-8.95Q144.54-8.95 144.64-8.75 144.74-8.55 144.74-8.05L144.74-8.05Q144.74-6.45 143.31-4.4 141.89-2.35 139.64-0.93 137.39 0.5 135.04 0.5L135.04 0.5ZM136.04-11.9Q137.14-11.9 138.29-12.68 139.44-13.45 140.19-14.7 140.94-15.95 140.94-17.4L140.94-17.4Q140.94-19.2 139.49-19.2L139.49-19.2Q137.94-19.2 136.69-17.25 135.44-15.3 135.09-12.05L135.09-12.05Q135.39-11.9 136.04-11.9L136.04-11.9ZM153.69 0.5Q152.04 0.5 151.24-0.55 150.44-1.6 150.44-3.9L150.44-3.9Q150.44-5.35 150.84-7.75L150.84-7.75 152.89-19.45 148.84-19.45Q148.29-19.45 148.06-19.58 147.84-19.7 147.84-19.95L147.84-19.95Q147.84-20.4 148.49-21.2 149.14-22 149.96-22.65 150.79-23.3 151.34-23.3L151.34-23.3 153.64-23.3 154.04-25.9Q154.39-27.75 156.11-29.2 157.84-30.65 159.49-30.65L159.49-30.65Q159.89-30.65 160.14-30.5 160.39-30.35 160.39-30.05L160.39-30.05Q160.39-29.85 159.89-28.98 159.39-28.1 159.14-26.55L159.14-26.55 158.59-23.3 162.84-23.3Q163.44-23.3 163.64-23.23 163.84-23.15 163.84-22.9L163.84-22.9Q163.84-22.4 163.14-21.58 162.44-20.75 161.54-20.1 160.64-19.45 160.19-19.45L160.19-19.45 157.94-19.45 155.94-7.55Q155.59-5.8 155.59-4.85L155.59-4.85Q155.59-4.15 155.81-3.88 156.04-3.6 156.49-3.6L156.49-3.6Q158.14-3.6 159.59-6.3L159.59-6.3Q159.74-6.65 159.89-6.83 160.04-7 160.24-7L160.24-7Q160.74-7 160.74-6.15L160.74-6.15Q160.74-4.85 159.74-3.28 158.74-1.7 157.11-0.6 155.49 0.5 153.69 0.5L153.69 0.5Z" opacity="1" transform="matrix(1,0,0,1,0,0)" fill="#000000" class="wordmark-text-0" data-fill-palette-color="primary" id="text-0"></path></svg></g></svg></g><g transform="matrix(1,0,0,1,0,71.039759872)"><svg viewBox="0 0 208 15.687990094923647" height="15.687990094923647" width="208"><g transform="matrix(1,0,0,1,0,0)"><svg width="208" viewBox="1.5 -36.15 484.55 36.55" height="15.687990094923647" data-palette-color="#7c4e29"><path d="M34.05-5.85L34.05-18.85Q34.05-20.85 34.4-25.05L34.4-25.05 34.5-26.25 34-26.3Q32.85-22.05 32-19.55L32-19.55 25.35 0 18.7 0 11.7-19.55Q10.75-21.8 10-25.15L10-25.15 9.7-26.3 9.2-26.25Q9.65-21.8 9.65-18.85L9.65-18.85 9.65-5.7Q11.5-5 12.4-3.85L12.4-3.85 11.9 0 2.1 0 1.6-3.85Q2.5-5 4.35-5.7L4.35-5.7 4.35-28.8Q2.3-29.55 1.5-30.65L1.5-30.65 2-34.5 13.4-34.5 20.7-14.35Q22.1-11.05 22.5-8.3L22.5-8.3 22.65-7.45 23.35-7.45Q23.55-10.5 25.15-14.35L25.15-14.35 32.1-34.5 43.3-34.5 43.8-30.65Q43-29.55 40.95-28.8L40.95-28.8 40.95-5.9Q42.9-5.15 43.7-4.15L43.7-4.15 43.2 0 31.8 0 31.3-4.1Q32.1-5.1 34.05-5.85L34.05-5.85ZM47.65-21.3L47.65-21.3Q47.65-22.05 47.7-22.9L47.7-22.9Q52.35-25.4 57.7-25.4 63.05-25.4 65.37-23.38 67.7-21.35 67.7-16.65L67.7-16.65 67.7-6Q69.45-5.65 70.45-5.15L70.45-5.15 70.45-0.8Q67.9 0.4 63.15 0.4L63.15 0.4Q62.65-0.9 62.3-2.75L62.3-2.75Q60.15 0.4 54.5 0.4L54.5 0.4Q51.15 0.4 48.77-1.55 46.4-3.5 46.4-6.85 46.4-10.2 48.62-12.13 50.85-14.05 55.25-14.05L55.25-14.05 60.7-14.05 60.7-16.45Q60.7-20.35 56.55-20.35L56.55-20.35Q55-20.35 54-20.05L54-20.05Q53.9-17.95 53.4-16.8L53.4-16.8 48.5-16.8Q47.65-18.55 47.65-21.3ZM56.65-4.7L56.65-4.7Q59.2-4.7 60.7-6.2L60.7-6.2 60.7-10.3 57.2-10.3Q53.6-10.3 53.6-7.55L53.6-7.55Q53.6-6.3 54.37-5.5 55.15-4.7 56.65-4.7ZM87.25-18.85L87.25-18.85Q83.45-18.85 82-17.4L82-17.4 82-5.95Q86.05-5.2 87.55-3.85L87.55-3.85 87.05 0 72.75 0 72.25-3.85Q72.95-4.8 75-5.55L75-5.55 75-19.45Q73.25-20.05 72.25-21.15L72.25-21.15 72.75-25Q75.5-25.6 77.7-25.6 79.9-25.6 81.35-25.5L81.35-25.5 81.35-22.35Q82.5-23.7 84.3-24.58 86.1-25.45 87.57-25.45 89.05-25.45 89.6-25.2L89.6-25.2 89.45-18.7Q88.45-18.85 87.25-18.85ZM91.04-31.65L91.54-35.5Q94.34-36.15 96.74-36.15 99.14-36.15 100.79-36L100.79-36 100.79-5.55Q102.74-4.8 103.54-3.85L103.54-3.85 103.04 0 91.54 0 91.04-3.85Q91.74-4.8 93.79-5.55L93.79-5.55 93.79-29.95Q92.04-30.55 91.04-31.65L91.04-31.65ZM118.09 0L110.09 0 101.24-12.95 106.74-20.1Q105.89-20.6 105.54-21.15L105.54-21.15 106.04-25 117.04-25 117.54-21.15Q116.44-19.75 113.39-18.95L113.39-18.95 108.59-13.45 114.24-6Q117.34-5.3 118.59-3.85L118.59-3.85 118.09 0ZM131.99 0.4L131.99 0.4Q125.99 0.4 122.97-2.8 119.94-6 119.94-12.1L119.94-12.1Q119.94-15.8 120.99-18.48 122.04-21.15 123.84-22.6L123.84-22.6Q127.34-25.4 131.99-25.4 136.64-25.4 139.12-23.03 141.59-20.65 141.59-14.5L141.59-14.5Q141.59-10.9 138.04-10.9L138.04-10.9 127.19-10.9Q127.39-7.75 128.82-6.45 130.24-5.15 133.34-5.15L133.34-5.15Q135.04-5.15 136.59-5.55 138.14-5.95 138.84-6.35L138.84-6.35 139.54-6.75 141.04-2.75Q140.74-2.4 140.17-1.88 139.59-1.35 137.27-0.48 134.94 0.4 131.99 0.4ZM127.24-15.05L135.14-15.35Q135.24-16.05 135.24-17.05 135.24-18.05 134.44-19.18 133.64-20.3 131.67-20.3 129.69-20.3 128.64-19.1 127.59-17.9 127.24-15.05L127.24-15.05ZM149.59-31.3L153.24-31.3 153.24-25 160.39-25 160.39-20.8 153.24-20.8 153.24-8.15Q153.24-6.55 153.69-5.83 154.14-5.1 155.84-5.1 157.54-5.1 159.49-5.85L159.49-5.85 160.99-1.95Q157.14 0 153.11 0 149.09 0 147.66-1.73 146.24-3.45 146.24-6.75L146.24-6.75 146.24-20.8 143.99-20.8 143.44-23.85Q144.24-24.8 146.74-25.75L146.74-25.75Q147.34-29.85 149.59-31.3L149.59-31.3ZM185.33-34.75L192.18-34.75 202.13-5.9Q204.23-5.15 205.08-4.15L205.08-4.15 204.58 0 192.88 0 192.38-4.15Q192.98-4.95 194.78-5.65L194.78-5.65 193.43-9.85 183.43-9.85 182.18-5.8Q183.93-5.1 184.78-4.15L184.78-4.15 184.28 0 172.88 0 172.38-4.15Q173.28-5.3 175.73-6.05L175.73-6.05 185.33-34.75ZM188.73-27.75L188.03-27.75Q188.03-24.7 186.78-20.65L186.78-20.65 184.83-14.45 191.98-14.45 190.08-20.55Q188.93-24.05 188.78-26.9L188.78-26.9 188.73-27.75ZM211.28-31.3L214.93-31.3 214.93-25 222.08-25 222.08-20.8 214.93-20.8 214.93-8.15Q214.93-6.55 215.38-5.83 215.83-5.1 217.53-5.1 219.23-5.1 221.18-5.85L221.18-5.85 222.68-1.95Q218.83 0 214.81 0 210.78 0 209.36-1.73 207.93-3.45 207.93-6.75L207.93-6.75 207.93-20.8 205.68-20.8 205.13-23.85Q205.93-24.8 208.43-25.75L208.43-25.75Q209.03-29.85 211.28-31.3L211.28-31.3ZM255.48-4.15L254.98 0 243.28 0 242.78-4.15Q243.43-5 245.53-5.8L245.53-5.8 245.53-11.55 237.38-28.5Q235.03-29.3 234.18-30.35L234.18-30.35 234.63-34.25 234.63-34.3 234.68-34.5 246.38-34.5 246.88-30.35Q246.28-29.5 244.58-28.85L244.58-28.85 246.28-25Q247.73-21.7 248.78-18.45L248.78-18.45 249.13-17.45 249.88-17.45Q250.93-21.1 252.63-25L252.63-25 254.23-28.65Q252.23-29.45 251.53-30.35L251.53-30.35 252.03-34.5 263.43-34.5 263.93-30.35Q262.93-29.2 260.63-28.45L260.63-28.45 252.73-11.55 252.73-5.8Q254.73-5 255.48-4.15L255.48-4.15ZM273.8 0.4Q267.87 0.4 265.02-2.75 262.17-5.9 262.17-12.28 262.17-18.65 265.35-22.03 268.52-25.4 274.47-25.4 280.42-25.4 283.3-22.4 286.17-19.4 286.17-13.03 286.17-6.65 282.95-3.13 279.72 0.4 273.8 0.4ZM269.37-12.7L269.37-12.7Q269.37-4.7 274.17-4.7L274.17-4.7Q276.62-4.7 277.8-6.53 278.97-8.35 278.97-12.5L278.97-12.5Q278.97-20.3 274.07-20.3L274.07-20.3Q271.67-20.3 270.52-18.57 269.37-16.85 269.37-12.7ZM307.17-2.1L307.17-2.1Q303.72 0.4 299.05 0.4 294.37 0.4 292.52-1.55 290.67-3.5 290.67-7.9L290.67-7.9 290.67-19.45Q288.92-20.05 287.92-21.15L287.92-21.15 288.42-25Q291.22-25.65 293.62-25.65 296.02-25.65 297.67-25.5L297.67-25.5 297.67-9.55Q297.67-6.85 298.5-5.98 299.32-5.1 301.77-5.1 304.22-5.1 306.32-6.7L306.32-6.7 306.32-19.45Q304.57-20.05 303.57-21.15L303.57-21.15 304.07-25Q306.87-25.65 309.27-25.65 311.67-25.65 313.32-25.5L313.32-25.5 313.32-6Q315.07-5.65 316.07-5.15L316.07-5.15 316.07-1.2Q313.07 0.4 308.52 0.4L308.52 0.4Q307.27-0.5 307.17-2.1ZM333.12-18.85L333.12-18.85Q329.32-18.85 327.87-17.4L327.87-17.4 327.87-5.95Q331.92-5.2 333.42-3.85L333.42-3.85 332.92 0 318.62 0 318.12-3.85Q318.82-4.8 320.87-5.55L320.87-5.55 320.87-19.45Q319.12-20.05 318.12-21.15L318.12-21.15 318.62-25Q321.37-25.6 323.57-25.6 325.77-25.6 327.22-25.5L327.22-25.5 327.22-22.35Q328.37-23.7 330.17-24.58 331.97-25.45 333.44-25.45 334.92-25.45 335.47-25.2L335.47-25.2 335.32-18.7Q334.32-18.85 333.12-18.85ZM361.26-12L361.26-12 359.01-12 359.01-6.1Q362.66-5.3 363.56-4.15L363.56-4.15 363.06 0 349.56 0 349.06-4.15Q349.71-5 351.81-5.8L351.81-5.8 351.81-28.65Q349.76-29.4 349.06-30.35L349.06-30.35 349.56-34.5 362.81-34.5Q369.76-34.4 373.19-31.98 376.61-29.55 376.61-23.35L376.61-23.35Q376.61-12 361.26-12ZM362.01-29.05L362.01-29.05 359.01-29.05 359.01-17.45 362.36-17.45Q365.76-17.45 367.44-18.8 369.11-20.15 369.11-23.48 369.11-26.8 367.29-27.93 365.46-29.05 362.01-29.05ZM378.46-31.65L378.96-35.5Q381.76-36.15 384.16-36.15 386.56-36.15 388.21-36L388.21-36 388.21-23.5Q389.41-24.3 391.41-24.85 393.41-25.4 394.96-25.4L394.96-25.4Q399.91-25.4 401.81-23 403.71-20.6 403.71-15.7L403.71-15.7 403.71-5.55Q405.66-4.8 406.46-3.85L406.46-3.85 405.96 0 394.46 0 393.96-3.85Q394.66-4.8 396.71-5.55L396.71-5.55 396.71-15.45Q396.71-18.15 395.83-19.07 394.96-20 392.66-20 390.36-20 388.21-18.4L388.21-18.4 388.21-5.55Q390.16-4.8 390.96-3.85L390.96-3.85 390.46 0 378.96 0 378.46-3.85Q379.16-4.8 381.21-5.55L381.21-5.55 381.21-29.95Q379.46-30.55 378.46-31.65L378.46-31.65ZM419.78 0.4Q413.86 0.4 411.01-2.75 408.16-5.9 408.16-12.28 408.16-18.65 411.33-22.03 414.51-25.4 420.46-25.4 426.41-25.4 429.28-22.4 432.16-19.4 432.16-13.03 432.16-6.65 428.93-3.13 425.71 0.4 419.78 0.4ZM415.36-12.7L415.36-12.7Q415.36-4.7 420.16-4.7L420.16-4.7Q422.61-4.7 423.78-6.53 424.96-8.35 424.96-12.5L424.96-12.5Q424.96-20.3 420.06-20.3L420.06-20.3Q417.66-20.3 416.51-18.57 415.36-16.85 415.36-12.7ZM434.7-21.15L435.2-25Q437.95-25.6 440.15-25.6 442.35-25.6 443.8-25.5L443.8-25.5 443.8-23Q445.05-24.05 447.13-24.73 449.2-25.4 451.1-25.4L451.1-25.4Q456-25.4 457.98-23.1 459.95-20.8 459.95-15.15L459.95-15.15 459.95-5.55Q461.9-4.8 462.7-3.85L462.7-3.85 462.2 0 450.7 0 450.2-3.85Q450.9-4.8 452.95-5.55L452.95-5.55 452.95-15.45Q452.95-18.15 452.08-19.07 451.2-20 448.95-20 446.7-20 444.45-18.4L444.45-18.4 444.45-5.55Q446.4-4.8 447.2-3.85L447.2-3.85 446.7 0 435.2 0 434.7-3.85Q435.4-4.8 437.45-5.55L437.45-5.55 437.45-19.45Q435.7-20.05 434.7-21.15L434.7-21.15ZM476.45 0.4L476.45 0.4Q470.45 0.4 467.43-2.8 464.4-6 464.4-12.1L464.4-12.1Q464.4-15.8 465.45-18.48 466.5-21.15 468.3-22.6L468.3-22.6Q471.8-25.4 476.45-25.4 481.1-25.4 483.58-23.03 486.05-20.65 486.05-14.5L486.05-14.5Q486.05-10.9 482.5-10.9L482.5-10.9 471.65-10.9Q471.85-7.75 473.28-6.45 474.7-5.15 477.8-5.15L477.8-5.15Q479.5-5.15 481.05-5.55 482.6-5.95 483.3-6.35L483.3-6.35 484-6.75 485.5-2.75Q485.2-2.4 484.63-1.88 484.05-1.35 481.73-0.48 479.4 0.4 476.45 0.4ZM471.7-15.05L479.6-15.35Q479.7-16.05 479.7-17.05 479.7-18.05 478.9-19.18 478.1-20.3 476.13-20.3 474.15-20.3 473.1-19.1 472.05-17.9 471.7-15.05L471.7-15.05Z" opacity="1" transform="matrix(1,0,0,1,0,0)" fill="#000000" class="slogan-text-1" data-fill-palette-color="secondary" id="text-1"></path></svg></g></svg></g></svg></g></svg></g><g transform="matrix(1,0,0,1,39.727999999999994,0)"><svg viewBox="0 0 128.544 128.544" height="128.544" width="128.544"><g><svg viewBox="0 0 128.544 128.544" height="128.544" width="128.544"><g transform="matrix(1,0,0,1,33.973888639718815,37.12763676090937)"><svg viewBox="0 0 60.59622272056238 54.28872647818128" height="54.28872647818128" width="60.59622272056238"><g><svg xmlns="http://www.w3.org/2000/svg" xmlns:xlink="http://www.w3.org/1999/xlink" version="1.1" x="0" y="0" viewBox="0.985 6.087 98.03 87.826" enable-background="new 0 0 100 100" xml:space="preserve" height="54.28872647818128" width="60.59622272056238" class="icon-z$-0" data-fill-palette-color="accent" id="z$-0"><path d="M50 6.087C22.93 6.087 0.985 25.748 0.985 50 0.985 74.253 22.93 93.913 50 93.913c27.07 0 49.015-19.66 49.015-43.913C99.015 25.748 77.07 6.087 50 6.087zM74.833 69.08c-32.125 19.166-60.851-0.667-66.379-6.454 14.492 11.331 37.288 14.851 56.379 6.787C76.146 64.037 82.172 56.755 85 47.079c2.829-10.751-0.536-20.965-11.143-27.954-9.899-6.451-22.628-8.601-35.355-5.376-9.899 3.226-17.678 9.139-20.506 17.74-3.535 9.139 2.829 18.277 13.435 23.115 10.606 3.763 25.456 2.15 31.113-6.45 3.535-5.914 2.121-13.44-5.657-17.203-3.535-1.613-8.303-1.955-10.86 0.174-3.521 2.932 1.89 0.361 5.874 2.206 2.517 1.165 5.6 3.165 4.986 8.372-0.772 6.559-11.313 9.677-18.385 7.526-7.778-2.688-11.314-8.601-10.606-14.515 1.414-6.451 7.778-11.289 15.557-12.902 13.435-2.688 25.455 4.301 29.698 13.978 3.535 9.138-2.121 17.739-12.021 23.115-8.484 4.301-18.385 5.376-27.577 2.688-13.435-3.763-22.627-12.901-23.334-24.19C9.511 22.888 22.238 12.137 39.916 8.374c19.799-3.225 39.598 4.301 48.083 18.277C95.777 41.166 91.609 59.071 74.833 69.08z" fill="#000000" data-fill-palette-color="accent"></path></svg></g></svg></g><g><path d="M19.213 53.875c-0.074 0.186-0.22 0.235-0.438 0.149v0c-0.455-0.181-0.851-0.613-1.188-1.297v0c-0.279-0.549-0.571-0.981-0.877-1.295-0.308-0.308-0.932-0.764-1.872-1.369v0l-10.695-6.426-0.053 0.134c-0.296 0.744-0.445 1.36-0.447 1.849-0.011 0.493 0.026 0.924 0.11 1.292 0.084 0.367 0.112 0.586 0.084 0.656v0c-0.051 0.128-0.166 0.157-0.345 0.086v0c-0.09-0.036-0.218-0.105-0.385-0.209v0c-0.739-0.532-1.178-1.36-1.317-2.484-0.139-1.124 0.072-2.392 0.633-3.802v0c0.252-0.635 0.605-1.389 1.056-2.263v0c0.666-1.413 1.056-2.264 1.171-2.552v0c0.281-0.705 0.465-1.281 0.555-1.729 0.082-0.45 0.132-0.846 0.149-1.187 0.024-0.34 0.057-0.564 0.101-0.673v0c0.036-0.09 0.082-0.149 0.138-0.179 0.05-0.032 0.129-0.026 0.238 0.017v0c0.288 0.115 0.582 0.395 0.88 0.84 0.298 0.445 0.492 1.001 0.583 1.668 0.093 0.661-0.015 1.382-0.326 2.165v0c-0.064 0.16-0.231 0.524-0.502 1.092v0c-0.417 0.844-0.776 1.644-1.077 2.4v0l5.236 3.13 2.088-5.249c0.028-0.071 0.082-0.123 0.163-0.158 0.072-0.031 0.143-0.032 0.214-0.005v0c0.147 0.059 0.353 0.27 0.616 0.635 0.263 0.365 0.474 0.768 0.632 1.21 0.165 0.444 0.182 0.83 0.052 1.156v0c-0.036 0.09-0.186 0.356-0.452 0.8v0c-0.429 0.668-0.759 1.291-0.988 1.868v0l-0.379 0.952 4.721 2.858c0.191 0.135 0.367 0.272 0.527 0.41 0.154 0.136 0.272 0.231 0.354 0.286v0l0.029 0.011c0.608-0.894 1.07-1.738 1.387-2.533v0c0.612-1.538 0.836-2.867 0.672-3.986v0c-0.072-0.341-0.079-0.585-0.02-0.732v0c0.064-0.16 0.205-0.197 0.422-0.11v0c0.468 0.186 0.856 0.593 1.163 1.219 0.31 0.621 0.471 1.364 0.483 2.23 0.012 0.866-0.163 1.754-0.526 2.664v0c-0.171 0.429-0.402 0.909-0.694 1.439-0.296 0.521-0.476 0.842-0.541 0.966v0c-0.535 0.916-0.871 1.546-1.009 1.892v0c-0.194 0.487-0.286 0.944-0.278 1.371 0.011 0.42-0.005 0.685-0.048 0.793z" fill="#000000" data-fill-palette-color="accent"></path><path d="M27.055 37.113c-0.093 0.071-0.211 0.014-0.354-0.172v0c-0.164-0.213-0.257-0.459-0.279-0.738-0.028-0.274-0.003-0.615 0.075-1.023v0c0.057-0.435 0.086-0.766 0.086-0.993 0.004-0.221-0.053-0.494-0.173-0.819-0.114-0.33-0.316-0.814-0.606-1.453v0l-5.693-11.779-0.139 0.107c-0.077 0.059-0.251 0.166-0.522 0.322v0c-0.358 0.179-0.707 0.399-1.046 0.66v0c-0.449 0.344-0.777 0.692-0.986 1.044-0.204 0.357-0.308 0.793-0.312 1.309v0c0.007 0.168 0 0.317-0.022 0.448-0.022 0.13-0.063 0.218-0.123 0.264v0c-0.142 0.109-0.274 0.085-0.396-0.074v0c-0.118-0.153-0.196-0.289-0.235-0.407v0c-0.452-0.906-0.551-1.816-0.298-2.733 0.254-0.926 0.836-1.738 1.744-2.435v0c0.186-0.143 0.494-0.353 0.925-0.631v0c0.389-0.229 0.778-0.493 1.166-0.792v0c0.137-0.105 0.467-0.394 0.992-0.866v0c0.254-0.247 0.433-0.411 0.537-0.49v0c0.284 0.426 0.537 0.784 0.759 1.074v0c0.441 0.574 1.018 1.184 1.73 1.828 0.718 0.64 1.747 1.516 3.087 2.627v0l3.092 2.531c0.349 0.228 0.625 0.446 0.829 0.655v0c-0.618-4.1-1.049-6.848-1.294-8.243-0.245-1.395-0.488-2.617-0.729-3.668v0c-0.1-0.515-0.189-0.937-0.269-1.267v0c-0.356-1.744-0.534-3.13-0.531-4.158 0.003-1.038 0.225-1.995 0.665-2.872v0c0.279-0.588 0.652-1.122 1.118-1.602 0.472-0.484 1.055-0.993 1.75-1.527v0c0.356-0.273 0.595-0.505 0.718-0.695v0c0.084-0.117 0.152-0.221 0.204-0.313 0.056-0.086 0.105-0.146 0.149-0.179v0c0.126-0.097 0.254-0.06 0.384 0.109v0c0.248 0.323 0.297 0.789 0.148 1.4-0.148 0.6-0.438 1.067-0.87 1.398v0c-0.502 0.411-0.895 0.766-1.18 1.063-0.289 0.292-0.535 0.628-0.737 1.01v0c-0.375 0.723-0.44 1.568-0.193 2.535 0.252 0.963 0.83 2.242 1.732 3.836v0c0.403 0.752 0.874 1.569 1.412 2.451 0.548 0.884 1.122 1.795 1.722 2.735v0c1.533 2.415 2.782 4.444 3.747 6.086v0c0.21 0.308 0.359 0.62 0.445 0.937 0.081 0.321 0.099 0.594 0.055 0.819v0l0.019 0.024c0.429-0.086 0.797-0.247 1.104-0.482v0c0.219-0.168 0.409-0.379 0.57-0.634 0.157-0.26 0.266-0.413 0.326-0.459v0c0.06-0.046 0.117-0.063 0.169-0.051 0.047 0.016 0.106 0.071 0.178 0.163v0c0.151 0.197 0.212 0.468 0.181 0.814v0c-0.001 1.279-0.296 2.145-0.888 2.599v0c-0.213 0.164-0.556 0.34-1.028 0.529v0c-0.056 0.017-0.234 0.092-0.532 0.225-0.292 0.129-0.562 0.288-0.808 0.477v0c-0.323 0.248-0.583 0.543-0.78 0.886-0.188 0.344-0.312 0.54-0.372 0.586v0c-0.109 0.084-0.236 0.033-0.379-0.153v0c-0.319-0.416-0.382-1.007-0.187-1.773v0l0.172-0.642c0.077-0.285 0.119-0.496 0.128-0.633 0.004-0.142-0.06-0.31-0.192-0.504v0l-0.323-0.522c-1.821-2.881-2.956-4.71-3.404-5.488-0.445-0.772-0.988-1.689-1.631-2.752v0l-0.025 0.019c0.147 1.54 0.396 3.257 0.748 5.153 0.347 1.89 0.733 3.56 1.157 5.007v0c0.102 0.835 0.129 1.697 0.081 2.586-0.038 0.89-0.142 1.401-0.311 1.531v0c-0.049 0.038-0.104 0.041-0.164 0.008-0.064-0.038-0.132-0.103-0.203-0.196v0c-0.983-1.02-1.707-1.764-2.171-2.233-0.466-0.46-1.222-1.127-2.268-2.003v0c-0.457-0.38-1.136-0.936-2.039-1.67-0.897-0.738-1.583-1.32-2.059-1.746v0l-0.035-0.012 3.981 8.124c0.021 0.062 0.1 0.267 0.237 0.614 0.131 0.352 0.178 0.629 0.141 0.83v0l0.038 0.049c0.37-0.119 0.686-0.279 0.949-0.48v0c0.235-0.181 0.409-0.379 0.521-0.596 0.113-0.226 0.2-0.362 0.26-0.408v0c0.126-0.097 0.25-0.066 0.372 0.093v0c0.105 0.137 0.165 0.408 0.181 0.813v0c0.018 0.726-0.034 1.27-0.156 1.633-0.116 0.359-0.327 0.656-0.633 0.891v0c-0.219 0.168-0.533 0.309-0.941 0.422v0c-0.459 0.161-0.814 0.338-1.066 0.532v0c-0.356 0.273-0.632 0.581-0.83 0.924-0.199 0.353-0.323 0.548-0.372 0.586z" fill="#000000" data-fill-palette-color="accent"></path><path d="M49.677 21.275c-0.59 0.145-1.12-0.034-1.592-0.536-0.48-0.507-0.84-1.253-1.082-2.238v0c-0.387-1.574-0.397-3.28-0.031-5.117 0.361-1.829 1.07-3.452 2.128-4.87 1.058-1.418 2.355-2.315 3.889-2.692v0c0.489-0.12 0.989-0.182 1.499-0.186 0.51-0.005 0.941 0.042 1.292 0.14v0c-0.072 0.458-0.102 0.828-0.09 1.109 0.004 0.276 0.005 0.453 0.003 0.532v0c0.041 0.715 0.101 1.801 0.182 3.259 0.088 1.456 0.173 2.845 0.256 4.167v0c0.026 0.597 0.076 1.047 0.15 1.348v0c0.051 0.208 0.121 0.35 0.211 0.428 0.092 0.084 0.204 0.11 0.339 0.076v0c0.322-0.079 0.569-0.346 0.741-0.8 0.166-0.453 0.313-1.068 0.442-1.845v0c0.012-0.124 0.039-0.23 0.081-0.318 0.034-0.094 0.098-0.152 0.192-0.175v0c0.174-0.043 0.294 0.07 0.36 0.338v0c0.033 0.134 0.048 0.24 0.046 0.318v0c0.084 0.747 0.012 1.524-0.215 2.334-0.221 0.807-0.564 1.506-1.031 2.096-0.464 0.597-1.001 0.97-1.61 1.12v0c-0.489 0.12-0.914 0.036-1.277-0.251-0.363-0.294-0.62-0.746-0.77-1.356v0c-0.036-0.147-0.075-0.376-0.115-0.686v0l-0.098-1.009-0.051 0.012c-0.442 1.238-1.028 2.309-1.757 3.213-0.732 0.897-1.429 1.427-2.092 1.589zM50.604 18.064c0.415-0.102 0.857-0.601 1.326-1.497 0.476-0.898 0.86-1.98 1.153-3.245 0.293-1.265 0.396-2.48 0.309-3.646v0l-0.073-1.164c-0.545-0.165-1.015-0.198-1.41-0.102v0c-0.61 0.15-1.13 0.675-1.563 1.577-0.434 0.895-0.699 1.983-0.796 3.265-0.091 1.28 0.015 2.536 0.318 3.768v0c0.11 0.449 0.215 0.746 0.315 0.892 0.106 0.144 0.247 0.195 0.421 0.152z" fill="#000000" data-fill-palette-color="accent"></path><path d="M67.052 18.951c-0.335-0.048-0.485-0.187-0.452-0.419v0c0.014-0.096 0.119-0.3 0.317-0.614 0.192-0.321 0.407-0.827 0.644-1.518v0l0.888-2.716c0.941-2.897 1.458-4.597 1.55-5.1v0l0.037-0.256c0.047-0.328-0.019-0.504-0.197-0.529v0c-0.362-0.051-0.947 0.465-1.756 1.548v0c-0.097 0.146-0.203 0.274-0.316 0.383-0.114 0.116-0.219 0.167-0.314 0.154v0c-0.198-0.028-0.274-0.206-0.228-0.534v0c0.072-0.505 0.389-1.098 0.953-1.777 0.556-0.674 1.207-1.239 1.955-1.697 0.741-0.459 1.422-0.644 2.044-0.557v0c0.826 0.117 1.161 0.729 1.004 1.836v0c-0.032 0.225-0.222 1.024-0.57 2.396v0l0.03 0.004c1.009-1.313 1.921-2.242 2.738-2.788 0.816-0.546 1.593-0.766 2.33-0.661v0c0.499 0.071 0.881 0.275 1.147 0.612 0.273 0.331 0.372 0.767 0.295 1.306v0c-0.075 0.526-0.27 1.021-0.588 1.485-0.311 0.471-0.663 0.839-1.055 1.104-0.394 0.271-0.714 0.39-0.96 0.355v0c-0.157-0.022-0.195-0.125-0.113-0.309v0c0.1-0.264 0.167-0.513 0.2-0.745v0c0.071-0.499-0.116-0.779-0.56-0.843v0c-0.738-0.105-1.54 0.293-2.406 1.195-0.867 0.901-1.636 2.269-2.307 4.103v0c-0.457 1.154-0.781 2.063-0.973 2.726v0c-0.179 0.525-0.635 0.986-1.367 1.384-0.739 0.397-1.396 0.554-1.97 0.472z" fill="#000000" data-fill-palette-color="accent"></path><path d="M81.954 22.29c-0.277-0.155-0.368-0.317-0.274-0.485v0c0.047-0.084 0.233-0.261 0.557-0.53 0.315-0.266 0.644-0.608 0.988-1.024v0l7.09-8.97c1.532-1.933 2.946-3.431 4.243-4.492 1.297-1.061 2.552-1.801 3.767-2.22v0c1.013-0.327 1.863-0.448 2.551-0.364 0.688 0.084 1.507 0.301 2.457 0.651v0c0.553 0.199 0.934 0.329 1.145 0.391 0.216 0.066 0.348 0.112 0.396 0.139v0c0.138 0.077 0.156 0.209 0.051 0.396v0c-0.084 0.151-0.253 0.297-0.506 0.44-0.244 0.14-0.512 0.251-0.803 0.333v0c-0.238 0.072-0.45 0.084-0.636 0.036-0.186-0.049-0.456-0.16-0.81-0.334v0c-0.551-0.245-1.089-0.356-1.615-0.334-0.523 0.016-1.113 0.188-1.77 0.515v0c-0.84 0.471-1.712 1.196-2.616 2.177-0.91 0.977-2.246 2.581-4.007 4.813v0l-3.081 3.897 0.027 0.015 1.113-0.611c1.496-0.839 2.713-1.439 3.65-1.8 0.94-0.352 1.685-0.532 2.235-0.54 0.55-0.009 1.054 0.115 1.511 0.371v0c0.53 0.296 0.879 0.654 1.048 1.072 0.169 0.419 0.134 0.842-0.105 1.269v0c-0.182 0.325-0.427 0.595-0.737 0.809-0.313 0.22-0.563 0.278-0.749 0.174v0c-0.072-0.04-0.155-0.154-0.248-0.341v0c-0.079-0.226-0.175-0.422-0.288-0.587-0.122-0.163-0.304-0.312-0.544-0.447v0c-0.44-0.246-0.902-0.338-1.387-0.277-0.482 0.07-1.116 0.285-1.901 0.644v0l-2.198 1.047c-0.307 3.63-0.144 5.622 0.488 5.975v0c0.337 0.189 1.036 0.034 2.097-0.463v0c0.2-0.117 0.363-0.196 0.488-0.237 0.125-0.041 0.239-0.032 0.342 0.025v0c0.151 0.084 0.155 0.253 0.013 0.505v0c-0.077 0.138-0.144 0.236-0.198 0.292v0c-0.314 0.449-0.792 0.865-1.434 1.25-0.638 0.378-1.282 0.639-1.931 0.781-0.646 0.137-1.164 0.096-1.555-0.123v0c-0.494-0.276-0.794-0.855-0.902-1.737-0.11-0.891-0.118-2.058-0.023-3.498v0l0.098-1.427c-0.516 0.273-0.849 0.466-1 0.579v0l-1.319 1.574c-0.36 0.447-0.938 0.744-1.732 0.893-0.8 0.145-1.463 0.071-1.986-0.222z" fill="#000000" data-fill-palette-color="accent"></path><path d="M98.403 34.117c-0.661-0.769-0.918-1.598-0.772-2.487 0.15-0.884 0.699-1.733 1.646-2.547v0c1.109-0.953 2.521-1.67 4.235-2.151 1.709-0.477 3.352-0.629 4.929-0.456 1.577 0.173 2.747 0.705 3.511 1.595v0c0.418 0.487 0.609 0.995 0.574 1.525-0.035 0.531-0.32 1.025-0.853 1.484v0c-0.665 0.571-1.532 0.943-2.602 1.116-1.07 0.173-2.225 0.147-3.464-0.079-1.239-0.236-2.445-0.66-3.617-1.272v0c-0.984 0.918-1.108 1.807-0.371 2.665v0c0.409 0.476 0.94 0.798 1.593 0.964 0.662 0.168 1.384 0.198 2.165 0.091v0c0.199-0.044 0.355-0.064 0.467-0.06 0.122 0.004 0.208 0.035 0.257 0.093v0c0.076 0.089 0.099 0.174 0.069 0.254-0.04 0.08-0.134 0.183-0.281 0.309v0c-0.471 0.405-1.19 0.658-2.156 0.761-0.971 0.098-1.954-0.004-2.949-0.304-0.989-0.305-1.783-0.805-2.381-1.501zM104.283 29.83c0.283 0.33 0.686 0.566 1.209 0.708 0.517 0.147 1.056 0.171 1.616 0.071 0.56-0.099 1.055-0.333 1.484-0.702v0c0.534-0.458 0.616-0.902 0.248-1.331v0c-0.391-0.455-1.037-0.619-1.937-0.492-0.895 0.123-1.866 0.548-2.914 1.276v0c0.035 0.125 0.133 0.282 0.294 0.47z" fill="#000000" data-fill-palette-color="accent"></path><path d="M106.784 47.477c-0.235-0.597-0.221-1.118 0.042-1.562 0.265-0.438 0.815-0.821 1.649-1.149v0c0.526-0.207 1.255-0.408 2.187-0.603v0l6.814-1.389-0.867-2.205c-0.078-0.199-0.111-0.349-0.099-0.45 0.012-0.101 0.063-0.169 0.153-0.205v0c0.161-0.063 0.435-0.034 0.824 0.088 0.382 0.124 0.75 0.287 1.104 0.488 0.35 0.211 0.564 0.416 0.642 0.615v0l0.492 1.252 1.503-0.335c0.725-0.137 1.472 0.003 2.243 0.419 0.774 0.422 1.278 0.932 1.513 1.529v0c0.056 0.141 0.073 0.271 0.053 0.391-0.016 0.11-0.079 0.187-0.188 0.229v0c-0.071 0.028-0.303 0.012-0.697-0.048-0.385-0.056-0.878-0.018-1.478 0.114v0l-1.889 0.398 0.908 2.311c0.086 0.218 0.13 0.368 0.132 0.449 0.005 0.087-0.038 0.148-0.128 0.183v0c-0.186 0.073-0.477 0.039-0.874-0.101-0.4-0.132-0.783-0.315-1.149-0.549-0.36-0.237-0.573-0.438-0.638-0.605v0l-0.481-1.223-6.909 1.459c-0.686 0.121-1.202 0.25-1.549 0.386v0c-0.25 0.098-0.411 0.21-0.481 0.334-0.064 0.121-0.064 0.262 0 0.422v0c0.237 0.604 0.947 0.977 2.13 1.12v0c0.149 0.001 0.265 0.014 0.349 0.041 0.087 0.033 0.144 0.084 0.172 0.154v0c0.073 0.186-0.044 0.34-0.352 0.461v0c-0.475 0.187-1.07 0.209-1.786 0.068-0.715-0.141-1.387-0.426-2.014-0.853-0.63-0.434-1.074-0.979-1.331-1.634z" fill="#000000" data-fill-palette-color="accent"></path><path d="M6.005 84.216c-0.074-0.186-0.002-0.322 0.216-0.409v0c0.455-0.181 1.04-0.139 1.754 0.126v0c0.58 0.207 1.089 0.32 1.527 0.339 0.436 0.012 1.202-0.085 2.3-0.292v0l12.187-2.677-0.053-0.135c-0.296-0.744-0.611-1.294-0.946-1.65-0.331-0.366-0.653-0.653-0.967-0.863-0.32-0.207-0.494-0.345-0.522-0.416v0c-0.051-0.128 0.016-0.229 0.202-0.303v0c0.09-0.036 0.231-0.073 0.423-0.112v0c0.896-0.119 1.783 0.181 2.664 0.9 0.874 0.722 1.591 1.787 2.151 3.197v0c0.252 0.635 0.515 1.425 0.788 2.371v0c0.48 1.487 0.778 2.374 0.892 2.663v0c0.281 0.705 0.545 1.249 0.795 1.633 0.249 0.383 0.482 0.707 0.697 0.969 0.22 0.254 0.351 0.436 0.395 0.545v0c0.038 0.096 0.047 0.174 0.026 0.234-0.014 0.058-0.076 0.108-0.184 0.152v0c-0.295 0.117-0.7 0.115-1.217-0.006-0.522-0.119-1.046-0.389-1.57-0.812-0.524-0.422-0.941-1.021-1.249-1.797v0c-0.066-0.167-0.195-0.546-0.386-1.138v0c-0.276-0.9-0.565-1.728-0.866-2.484v0l-5.955 1.322 2.088 5.25c0.028 0.071 0.025 0.146-0.01 0.226-0.031 0.072-0.082 0.122-0.152 0.15v0c-0.147 0.059-0.442 0.046-0.884-0.038-0.444-0.09-0.878-0.237-1.3-0.441-0.418-0.212-0.693-0.482-0.822-0.808v0c-0.036-0.09-0.109-0.387-0.222-0.892v0c-0.147-0.78-0.335-1.459-0.565-2.036v0l-0.378-0.952-5.394 1.166c-0.238 0.035-0.46 0.057-0.665 0.064-0.205 0.007-0.356 0.019-0.454 0.036v0l-0.029 0.011c0.172 1.067 0.416 1.998 0.733 2.794v0c0.612 1.538 1.362 2.658 2.25 3.359v0c0.287 0.198 0.459 0.37 0.518 0.517v0c0.064 0.16-0.013 0.284-0.232 0.371v0c-0.468 0.186-1.029 0.157-1.683-0.088-0.654-0.245-1.282-0.674-1.882-1.289-0.603-0.621-1.086-1.387-1.449-2.297v0c-0.173-0.436-0.335-0.943-0.483-1.522-0.142-0.582-0.233-0.939-0.271-1.073v0c-0.24-1.033-0.429-1.722-0.567-2.069v0c-0.194-0.487-0.44-0.883-0.739-1.186-0.297-0.298-0.467-0.501-0.51-0.61z" fill="#000000" data-fill-palette-color="accent"></path><path d="M18.398 106.998c-0.093-0.071-0.068-0.2 0.074-0.386v0c0.164-0.213 0.377-0.367 0.641-0.461 0.258-0.098 0.594-0.162 1.008-0.191v0c0.435-0.057 0.762-0.115 0.981-0.173 0.214-0.053 0.464-0.179 0.747-0.379 0.289-0.195 0.705-0.516 1.246-0.96v0l9.911-8.541-0.139-0.107c-0.077-0.059-0.228-0.201-0.455-0.428v0c-0.26-0.295-0.56-0.573-0.899-0.833v0c-0.449-0.344-0.872-0.569-1.269-0.675-0.393-0.111-0.842-0.099-1.346 0.036v0c-0.156 0.045-0.3 0.074-0.431 0.087-0.131 0.012-0.227-0.005-0.287-0.051v0c-0.142-0.109-0.155-0.24-0.037-0.394v0c0.122-0.159 0.235-0.272 0.339-0.34v0c0.758-0.67 1.613-1.001 2.563-0.993 0.96 0.007 1.894 0.359 2.803 1.056v0c0.186 0.143 0.469 0.386 0.848 0.73v0c0.322 0.317 0.675 0.622 1.058 0.917v0c0.142 0.109 0.509 0.356 1.101 0.74v0c0.304 0.181 0.508 0.312 0.612 0.392v0c-0.338 0.384-0.621 0.724-0.848 1.019v0c-0.437 0.569-0.875 1.281-1.313 2.136-0.433 0.859-1.014 2.079-1.741 3.66v0l-1.647 3.64c-0.136 0.392-0.275 0.715-0.419 0.97v0c3.802-1.655 6.345-2.781 7.63-3.378 1.284-0.597 2.403-1.147 3.355-1.651v0c0.468-0.224 0.85-0.422 1.147-0.593v0c1.589-0.789 2.885-1.316 3.888-1.581 1.003-0.265 1.983-0.3 2.938-0.105v0c0.642 0.127 1.256 0.352 1.844 0.673 0.584 0.327 1.226 0.759 1.927 1.297v0c0.356 0.273 0.641 0.445 0.857 0.514v0c0.129 0.047 0.245 0.088 0.348 0.124 0.102 0.026 0.175 0.056 0.219 0.09v0c0.126 0.097 0.124 0.23-0.007 0.399v0c-0.248 0.323-0.686 0.491-1.313 0.505-0.628 0.014-1.158-0.146-1.591-0.478v0c-0.517-0.38-0.956-0.669-1.317-0.867-0.362-0.208-0.751-0.359-1.166-0.452v0c-0.805-0.175-1.638-0.019-2.499 0.468-0.871 0.488-1.957 1.376-3.259 2.664v0c-0.622 0.583-1.292 1.252-2.009 2.005-0.708 0.752-1.439 1.539-2.192 2.362v0c-1.938 2.104-3.575 3.834-4.912 5.191v0c-0.243 0.283-0.507 0.507-0.79 0.672-0.289 0.161-0.548 0.249-0.777 0.264v0l-0.019 0.025c0.189 0.388 0.439 0.702 0.751 0.941v0c0.219 0.168 0.469 0.295 0.751 0.381 0.292 0.085 0.47 0.152 0.536 0.203v0c0.06 0.046 0.089 0.094 0.085 0.144 0.002 0.054-0.032 0.127-0.104 0.22v0c-0.151 0.197-0.398 0.325-0.739 0.385v0c-1.236 0.33-2.149 0.267-2.74-0.186v0c-0.213-0.164-0.472-0.45-0.776-0.858v0c-0.037-0.054-0.155-0.206-0.355-0.455-0.2-0.249-0.423-0.468-0.67-0.657v0c-0.328-0.252-0.681-0.427-1.058-0.525-0.381-0.093-0.602-0.162-0.662-0.209v0c-0.109-0.084-0.093-0.219 0.051-0.405v0c0.319-0.416 0.874-0.629 1.665-0.639v0l0.664 0.001c0.295 0.001 0.51-0.013 0.644-0.04 0.133-0.037 0.279-0.142 0.438-0.316v0l0.421-0.446c2.313-2.503 3.787-4.071 4.423-4.706 0.631-0.629 1.375-1.388 2.232-2.278v0l-0.025-0.019c-1.445 0.534-3.038 1.216-4.779 2.044-1.737 0.823-3.25 1.627-4.539 2.412v0c-0.78 0.314-1.606 0.563-2.478 0.746-0.87 0.193-1.39 0.224-1.559 0.094v0c-0.049-0.038-0.066-0.09-0.05-0.156 0.02-0.072 0.066-0.154 0.137-0.247v0c0.731-1.213 1.261-2.106 1.589-2.681 0.329-0.565 0.78-1.463 1.351-2.693v0c0.253-0.545 0.618-1.348 1.093-2.41 0.481-1.057 0.866-1.87 1.156-2.439v0l-0.012-0.035-6.806 5.941c-0.054 0.037-0.232 0.166-0.533 0.387-0.306 0.217-0.564 0.332-0.773 0.345v0l-0.038 0.05c0.216 0.331 0.455 0.597 0.717 0.798v0c0.235 0.181 0.472 0.297 0.71 0.35 0.248 0.051 0.402 0.1 0.462 0.146v0c0.126 0.097 0.128 0.224 0.006 0.383v0c-0.105 0.137-0.351 0.265-0.739 0.385v0c-0.702 0.2-1.241 0.291-1.617 0.271-0.376-0.019-0.721-0.149-1.033-0.388v0c-0.213-0.164-0.428-0.428-0.643-0.794v0c-0.274-0.402-0.537-0.699-0.788-0.893v0c-0.356-0.273-0.725-0.461-1.107-0.563-0.392-0.101-0.613-0.17-0.662-0.208z" fill="#000000" data-fill-palette-color="accent"></path><path d="M46.148 125.928c-0.59-0.145-0.977-0.549-1.162-1.212-0.19-0.672-0.164-1.5 0.078-2.485v0c0.387-1.574 1.167-3.088 2.34-4.54 1.168-1.46 2.55-2.574 4.144-3.34 1.593-0.76 3.156-0.951 4.691-0.574v0c0.489 0.12 0.961 0.296 1.415 0.528 0.456 0.226 0.817 0.463 1.082 0.714v0c-0.276 0.373-0.474 0.686-0.593 0.941-0.124 0.246-0.207 0.407-0.247 0.482v0c-0.293 0.645-0.742 1.633-1.345 2.962-0.597 1.331-1.164 2.602-1.703 3.812v0c-0.254 0.541-0.418 0.963-0.492 1.265v0c-0.051 0.208-0.055 0.367-0.01 0.476 0.042 0.117 0.13 0.192 0.264 0.225v0c0.322 0.079 0.664-0.043 1.027-0.365 0.357-0.324 0.772-0.801 1.247-1.431v0c0.068-0.104 0.138-0.186 0.21-0.247 0.078-0.059 0.164-0.077 0.258-0.054v0c0.174 0.043 0.229 0.195 0.165 0.456v0c-0.033 0.134-0.068 0.235-0.107 0.304v0c-0.271 0.7-0.695 1.356-1.271 1.968-0.57 0.613-1.198 1.073-1.884 1.381-0.695 0.312-1.344 0.395-1.947 0.246v0c-0.496-0.122-0.837-0.394-1.025-0.816-0.179-0.428-0.194-0.946-0.044-1.556v0c0.036-0.147 0.108-0.368 0.216-0.661v0l0.38-0.94-0.051-0.012c-0.965 0.892-1.98 1.57-3.045 2.033-1.064 0.456-1.927 0.603-2.591 0.44zM48.457 123.511c0.415 0.102 1.038-0.136 1.869-0.713 0.837-0.576 1.679-1.356 2.525-2.342 0.846-0.986 1.5-2.015 1.962-3.087v0l0.473-1.056c-0.405-0.405-0.805-0.656-1.201-0.753v0c-0.61-0.15-1.315 0.075-2.115 0.674-0.799 0.592-1.538 1.434-2.218 2.524-0.68 1.09-1.171 2.252-1.474 3.484v0c-0.11 0.449-0.152 0.762-0.124 0.94 0.028 0.177 0.128 0.287 0.303 0.33z" fill="#000000" data-fill-palette-color="accent"></path><path d="M69.134 128.532c-0.335 0.048-0.518-0.045-0.552-0.277v0c-0.014-0.096 0.031-0.321 0.134-0.678 0.095-0.362 0.16-0.908 0.196-1.637v0l0.096-2.856c0.097-3.045 0.12-4.818 0.069-5.319v0l-0.037-0.267c-0.047-0.328-0.159-0.479-0.337-0.454v0c-0.362 0.051-0.78 0.71-1.255 1.976v0c-0.053 0.168-0.118 0.32-0.197 0.457-0.077 0.143-0.164 0.222-0.259 0.235v0c-0.198 0.028-0.32-0.122-0.367-0.449v0c-0.072-0.505 0.068-1.163 0.42-1.973 0.346-0.802 0.814-1.527 1.405-2.175 0.585-0.641 1.188-1.005 1.81-1.093v0c0.826-0.117 1.318 0.374 1.474 1.473v0c0.033 0.232 0.073 1.052 0.119 2.46v0l0.031-0.004c0.603-1.542 1.22-2.689 1.852-3.44 0.633-0.745 1.318-1.17 2.056-1.275v0c0.499-0.071 0.922 0.015 1.27 0.259 0.355 0.242 0.571 0.633 0.647 1.172v0c0.075 0.526 0.025 1.056-0.15 1.589-0.167 0.539-0.403 0.991-0.707 1.355-0.303 0.37-0.58 0.574-0.833 0.609v0c-0.15 0.021-0.212-0.067-0.184-0.266v0c0.023-0.282 0.017-0.539-0.016-0.771v0c-0.071-0.499-0.328-0.716-0.772-0.653v0c-0.738 0.105-1.397 0.711-1.978 1.817-0.581 1.107-0.939 2.635-1.073 4.584v0c-0.117 1.236-0.179 2.199-0.185 2.89v0c-0.019 0.553-0.325 1.123-0.918 1.708-0.599 0.587-1.186 0.921-1.759 1.003z" fill="#000000" data-fill-palette-color="accent"></path><path d="M89.175 123.458c-0.277 0.155-0.463 0.148-0.557-0.02v0c-0.047-0.084-0.1-0.335-0.16-0.753-0.062-0.408-0.181-0.867-0.355-1.378v0l-3.93-10.737c-0.845-2.317-1.38-4.306-1.605-5.966-0.225-1.66-0.198-3.118 0.08-4.372v0c0.252-1.034 0.594-1.822 1.026-2.364 0.432-0.542 1.043-1.125 1.832-1.747v0c0.465-0.37 0.778-0.629 0.942-0.776 0.163-0.147 0.272-0.235 0.326-0.265v0c0.138-0.077 0.26-0.023 0.364 0.164v0c0.088 0.157 0.124 0.377 0.109 0.662-0.009 0.281-0.054 0.568-0.136 0.858v0c-0.063 0.241-0.164 0.428-0.303 0.561-0.139 0.133-0.375 0.305-0.708 0.514v0c-0.497 0.341-0.874 0.741-1.131 1.202-0.26 0.454-0.423 1.046-0.487 1.778v0c-0.039 0.962 0.123 2.085 0.485 3.368 0.356 1.287 1.023 3.265 2.002 5.935v0l1.713 4.673 0.027-0.015 0.056-1.276c0.069-1.714 0.195-3.065 0.378-4.053 0.186-0.981 0.423-1.71 0.71-2.187 0.284-0.467 0.655-0.829 1.112-1.084v0c0.53-0.296 1.017-0.407 1.463-0.332 0.445 0.075 0.785 0.323 1.021 0.745v0c0.182 0.325 0.283 0.676 0.303 1.051 0.024 0.382-0.058 0.625-0.244 0.73v0c-0.072 0.04-0.212 0.052-0.42 0.033v0c-0.234-0.051-0.449-0.069-0.646-0.053-0.206 0.013-0.43 0.086-0.671 0.221v0c-0.44 0.246-0.76 0.591-0.962 1.035-0.192 0.447-0.341 1.1-0.447 1.957v0l-0.254 2.43c2.929 2.156 4.709 3.057 5.342 2.704v0c0.337-0.189 0.571-0.865 0.703-2.029v0c0.005-0.232 0.023-0.412 0.053-0.54 0.025-0.125 0.089-0.216 0.192-0.273v0c0.157-0.088 0.306-0.005 0.446 0.248v0c0.077 0.138 0.126 0.246 0.145 0.322v0c0.221 0.509 0.326 1.134 0.314 1.876-0.012 0.742-0.127 1.426-0.345 2.054-0.221 0.622-0.528 1.042-0.919 1.261v0c-0.494 0.276-1.144 0.229-1.952-0.141-0.817-0.373-1.815-0.977-2.993-1.812v0l-1.165-0.831c-0.038 0.582-0.048 0.967-0.03 1.155v0l0.651 1.948c0.192 0.541 0.143 1.189-0.146 1.943-0.295 0.758-0.705 1.283-1.229 1.576z" fill="#000000" data-fill-palette-color="accent"></path><path d="M109.626 108.359c-0.661 0.769-1.442 1.149-2.342 1.139-0.896-0.015-1.818-0.43-2.765-1.243v0c-1.109-0.953-2.031-2.24-2.766-3.863-0.729-1.618-1.127-3.219-1.194-4.804-0.061-1.58 0.29-2.815 1.055-3.705v0c0.418-0.487 0.889-0.755 1.414-0.804 0.53-0.045 1.062 0.162 1.595 0.62v0c0.665 0.571 1.163 1.372 1.496 2.404 0.333 1.031 0.478 2.18 0.437 3.444-0.042 1.255-0.277 2.508-0.705 3.759v0c1.056 0.835 1.953 0.823 2.69-0.035v0c0.409-0.476 0.647-1.049 0.713-1.72 0.066-0.68-0.013-1.398-0.236-2.154v0c-0.073-0.19-0.116-0.341-0.13-0.452-0.014-0.121 0.004-0.211 0.053-0.268v0c0.076-0.089 0.157-0.124 0.241-0.107 0.085 0.028 0.201 0.105 0.348 0.231v0c0.471 0.405 0.83 1.077 1.077 2.017 0.243 0.945 0.291 1.932 0.144 2.961-0.152 1.024-0.527 1.884-1.125 2.58zM104.502 103.193c0.283-0.33 0.456-0.763 0.517-1.302 0.067-0.533 0.009-1.07-0.173-1.608-0.183-0.539-0.489-0.993-0.918-1.361v0c-0.528-0.454-0.977-0.466-1.345-0.038v0c-0.391 0.455-0.458 1.116-0.202 1.982 0.256 0.866 0.823 1.762 1.701 2.689v0c0.118-0.053 0.258-0.174 0.42-0.362z" fill="#000000" data-fill-palette-color="accent"></path><path d="M120.553 90.769c-0.235 0.597-0.599 0.969-1.094 1.116-0.492 0.14-1.156 0.046-1.991-0.282v0c-0.526-0.207-1.197-0.556-2.012-1.047v0l-5.936-3.623-0.867 2.206c-0.078 0.199-0.156 0.331-0.234 0.397-0.078 0.066-0.162 0.081-0.251 0.046v0c-0.161-0.063-0.339-0.27-0.534-0.622-0.202-0.354-0.36-0.724-0.476-1.109-0.119-0.395-0.139-0.692-0.061-0.891v0l0.492-1.252-1.329-0.778c-0.626-0.387-1.079-0.998-1.358-1.835-0.279-0.836-0.301-1.553-0.066-2.149v0c0.056-0.141 0.131-0.249 0.226-0.323 0.087-0.07 0.185-0.083 0.294-0.04v0c0.077 0.03 0.236 0.2 0.478 0.51 0.244 0.303 0.631 0.611 1.16 0.923v0l1.655 0.995 0.908-2.311c0.086-0.218 0.155-0.358 0.209-0.418 0.056-0.067 0.129-0.083 0.219-0.048v0c0.186 0.073 0.376 0.296 0.571 0.669 0.203 0.369 0.359 0.764 0.468 1.185 0.102 0.418 0.121 0.711 0.055 0.878v0l-0.48 1.223 6.053 3.635c0.585 0.378 1.051 0.635 1.398 0.772v0c0.25 0.098 0.443 0.126 0.579 0.083 0.129-0.046 0.225-0.149 0.288-0.309v0c0.235-0.597-0.033-1.351-0.802-2.261v0c-0.106-0.108-0.181-0.201-0.224-0.277-0.041-0.083-0.048-0.16-0.021-0.231v0c0.071-0.18 0.26-0.209 0.569-0.088v0c0.475 0.187 0.928 0.572 1.357 1.157 0.428 0.591 0.726 1.256 0.894 1.996 0.166 0.747 0.12 1.448-0.137 2.103z" fill="#000000" data-fill-palette-color="accent"></path><path d="M0.81 66.418c0-5.479 4.442-9.921 9.921-9.921 5.479 0 9.921 4.442 9.922 9.921 0 5.479-4.442 9.921-9.922 9.921-5.479 0-9.921-4.442-9.921-9.921z" fill="#000000" data-fill-palette-color="accent"></path><path d="M107.891 66.418c0-5.479 4.442-9.921 9.922-9.921 5.479 0 9.921 4.442 9.921 9.921 0 5.479-4.442 9.921-9.921 9.921-5.479 0-9.921-4.442-9.922-9.921z" fill="#000000" data-fill-palette-color="accent"></path></g></svg></g></svg></g><g></g></svg></g></svg></g></svg></g><defs></defs></svg><rect width="320" height="360" fill="none" stroke="none" visibility="hidden"></rect></g></svg></g></svg>