<?xml version="1.0" standalone="no"?>
<svg viewBox="0 0 200 200" xmlns="http://www.w3.org/2000/svg">
  <path fill="#FF0066" d="M28.6,-45.2C37,-39.1,43.8,-31.1,55.1,-20.9C66.4,-10.7,82.2,1.7,86,16.2C89.9,30.6,81.7,47.2,68.2,54.5C54.7,61.8,35.8,59.8,19.1,64.5C2.4,69.1,-12.3,80.3,-26.5,80.6C-40.8,80.9,-54.7,70.1,-62.9,56.7C-71.2,43.3,-73.8,27.1,-76.1,10.9C-78.5,-5.3,-80.6,-21.5,-73,-31.3C-65.3,-41,-48,-44.3,-34.2,-48C-20.4,-51.6,-10.2,-55.6,-0.1,-55.5C10.1,-55.4,20.2,-51.3,28.6,-45.2Z" transform="translate(100 100)" />
</svg>
